<svg id="Layer_1" data-name="Layer 1" xmlns="http://www.w3.org/2000/svg" xmlns:xlink="http://www.w3.org/1999/xlink" viewBox="0 0 523.1 528.38"><defs><style>.cls-1{fill:none;}.cls-2{fill:url(#radial-gradient);}.cls-3{fill:#7e8080;}.cls-4{fill:url(#radial-gradient-2);}.cls-5{fill:#373634;}.cls-6{fill:url(#radial-gradient-3);}.cls-7{fill:url(#radial-gradient-4);}.cls-8{fill:url(#radial-gradient-5);}.cls-9{clip-path:url(#clip-path);}.cls-10{fill:#a6a6a6;}.cls-11{clip-path:url(#clip-path-2);}.cls-12{fill:url(#radial-gradient-6);}.cls-13{fill:url(#radial-gradient-7);}.cls-14{fill:url(#radial-gradient-8);}.cls-15{fill:url(#radial-gradient-9);}.cls-16{fill:url(#radial-gradient-10);}.cls-17{fill:url(#radial-gradient-11);}.cls-18{fill:url(#radial-gradient-12);}.cls-19{fill:url(#radial-gradient-13);}.cls-20{fill:url(#radial-gradient-14);}.cls-21{fill:url(#linear-gradient);}.cls-22{fill:url(#radial-gradient-15);}.cls-23{fill:url(#linear-gradient-2);}.cls-24{fill:url(#linear-gradient-3);}.cls-25{fill:url(#linear-gradient-4);}.cls-26{fill:url(#radial-gradient-16);}.cls-27{fill:url(#radial-gradient-17);}.cls-28{fill:url(#linear-gradient-5);}.cls-29{fill:url(#radial-gradient-18);}.cls-30{fill:url(#linear-gradient-6);}.cls-31{fill:url(#linear-gradient-7);}.cls-32{fill:url(#linear-gradient-8);}.cls-33{fill:url(#radial-gradient-19);}.cls-34{fill:url(#radial-gradient-20);}.cls-35{fill:url(#radial-gradient-21);}.cls-36{fill:url(#radial-gradient-22);}.cls-37{fill:url(#radial-gradient-23);}.cls-38{fill:url(#radial-gradient-24);}.cls-39{fill:url(#radial-gradient-25);}.cls-40{fill:url(#radial-gradient-26);}.cls-41{fill:url(#linear-gradient-9);}.cls-42{fill:url(#linear-gradient-10);}.cls-43{fill:url(#linear-gradient-11);}.cls-44{fill:url(#linear-gradient-12);}.cls-45{fill:url(#linear-gradient-13);}.cls-46{fill:url(#radial-gradient-27);}.cls-47{fill:url(#radial-gradient-28);}.cls-48{fill:url(#radial-gradient-29);}.cls-49{fill:url(#radial-gradient-30);}.cls-50{fill:url(#linear-gradient-14);}.cls-51{fill:url(#linear-gradient-15);}.cls-52{fill:url(#linear-gradient-16);}.cls-53{fill:url(#linear-gradient-17);}.cls-54{fill:url(#linear-gradient-18);}.cls-55{fill:url(#linear-gradient-19);}.cls-56{fill:url(#linear-gradient-20);}.cls-57{fill:url(#linear-gradient-21);}.cls-58{fill:url(#radial-gradient-31);}.cls-59{fill:url(#linear-gradient-22);}.cls-60{fill:url(#radial-gradient-32);}.cls-61{fill:url(#linear-gradient-23);}.cls-62{fill:url(#radial-gradient-33);}.cls-63{fill:url(#linear-gradient-24);}.cls-64{fill:url(#linear-gradient-25);}.cls-65{fill:url(#linear-gradient-26);}.cls-66{fill:url(#linear-gradient-27);}.cls-67{fill:url(#linear-gradient-28);}.cls-68{fill:url(#linear-gradient-29);}.cls-69{fill:url(#linear-gradient-30);}.cls-70{fill:url(#linear-gradient-31);}.cls-71{fill:url(#linear-gradient-32);}</style><radialGradient id="radial-gradient" cx="464.42" cy="541.46" r="59.05" gradientTransform="matrix(1.08, 0, 0, -1.05, 144.23, 917.69)" gradientUnits="userSpaceOnUse"><stop offset="0" stop-color="#c2c4c1"/><stop offset="0.01" stop-color="#c2c4c1"/><stop offset="0.3" stop-color="#babcba"/><stop offset="0.66" stop-color="#a5a7a6"/><stop offset="1" stop-color="#989b9a"/></radialGradient><radialGradient id="radial-gradient-2" cx="384.72" cy="531.81" r="132.93" gradientTransform="matrix(1.08, 0, 0, -1.05, 144.23, 917.69)" gradientUnits="userSpaceOnUse"><stop offset="0" stop-color="#fffffe"/><stop offset="1" stop-color="#e2e2dd"/></radialGradient><radialGradient id="radial-gradient-3" cx="353.25" cy="266.01" r="244.88" gradientTransform="matrix(0.83, 0, 0, 0.81, 129.88, 145.78)" xlink:href="#radial-gradient-2"/><radialGradient id="radial-gradient-4" cx="-26.57" cy="647.48" r="192.12" xlink:href="#radial-gradient-2"/><radialGradient id="radial-gradient-5" cx="146.74" cy="711.71" r="112.51" xlink:href="#radial-gradient-2"/><clipPath id="clip-path" transform="translate(-44.81 -64.57)"><path class="cls-1" d="M225.69,436.93c-30.19,0-46.31-2.82-46.31-2.82l193.16-22.06S357,425.46,294.17,432.74A597,597,0,0,1,225.69,436.93Z"/></clipPath><clipPath id="clip-path-2" transform="translate(-44.81 -64.57)"><path class="cls-1" d="M236.09,498.8c-39,0-58-6.64-58-6.64L371.67,474.5s-15,11.39-77.65,20.06A424.83,424.83,0,0,1,236.09,498.8Z"/></clipPath><radialGradient id="radial-gradient-6" cx="275.51" cy="420.58" r="65.41" xlink:href="#radial-gradient"/><radialGradient id="radial-gradient-7" cx="274.44" cy="362.19" r="65.42" xlink:href="#radial-gradient"/><radialGradient id="radial-gradient-8" cx="378.28" cy="533.25" r="114.08" xlink:href="#radial-gradient-2"/><radialGradient id="radial-gradient-9" cx="371.91" cy="638.35" r="74.47" gradientTransform="matrix(1.08, 0, 0, -1.05, 144.23, 917.69)" gradientUnits="userSpaceOnUse"><stop offset="0" stop-color="#de8954"/><stop offset="0.5" stop-color="#d56c31"/><stop offset="1" stop-color="#b95b31"/></radialGradient><radialGradient id="radial-gradient-10" cx="345.79" cy="647.54" r="74.44" xlink:href="#radial-gradient-9"/><radialGradient id="radial-gradient-11" cx="357.52" cy="635.41" r="74.46" xlink:href="#radial-gradient-9"/><radialGradient id="radial-gradient-12" cx="327.66" cy="647.53" r="74.46" xlink:href="#radial-gradient-9"/><radialGradient id="radial-gradient-13" cx="335.91" cy="631.23" r="155.46" xlink:href="#radial-gradient-2"/><radialGradient id="radial-gradient-14" cx="427.95" cy="598.5" r="37.55" xlink:href="#radial-gradient-2"/><linearGradient id="linear-gradient" x1="361.16" y1="443.87" x2="369.29" y2="431.03" gradientTransform="matrix(1.73, 0, 0, -1.73, -151.11, 1095.16)" gradientUnits="userSpaceOnUse"><stop offset="0" stop-color="#f4e09e"/><stop offset="0.5" stop-color="#eabd43"/><stop offset="1" stop-color="#e2a03e"/></linearGradient><radialGradient id="radial-gradient-15" cx="330.35" cy="596.71" r="4.62" xlink:href="#radial-gradient-2"/><linearGradient id="linear-gradient-2" x1="370.66" y1="441.59" x2="382.69" y2="424.9" gradientTransform="matrix(1.73, 0, 0, -1.73, -151.11, 1095.16)" gradientUnits="userSpaceOnUse"><stop offset="0" stop-color="#d4e9ef"/><stop offset="0.01" stop-color="#d4e9ef"/><stop offset="0.45" stop-color="#a9d4e3"/><stop offset="1" stop-color="#92c3d9"/></linearGradient><linearGradient id="linear-gradient-3" x1="381.54" y1="439.39" x2="391.84" y2="425.09" xlink:href="#linear-gradient-2"/><linearGradient id="linear-gradient-4" x1="377.09" y1="447.18" x2="388.3" y2="431.61" xlink:href="#linear-gradient-2"/><radialGradient id="radial-gradient-16" cx="336.51" cy="564.87" r="147.77" xlink:href="#radial-gradient-2"/><radialGradient id="radial-gradient-17" cx="428.13" cy="533.18" r="38.29" xlink:href="#radial-gradient-2"/><linearGradient id="linear-gradient-5" x1="362.65" y1="389.82" x2="373.65" y2="372.45" gradientTransform="matrix(1.73, 0, 0, -1.73, -151.11, 1095.16)" gradientUnits="userSpaceOnUse"><stop offset="0" stop-color="#d5745b"/><stop offset="0.5" stop-color="#c4292b"/><stop offset="1" stop-color="#af2a2e"/></linearGradient><radialGradient id="radial-gradient-18" cx="334.02" cy="514.56" r="6.24" xlink:href="#radial-gradient-2"/><linearGradient id="linear-gradient-6" x1="416.54" y1="383.03" x2="445.38" y2="356.41" xlink:href="#linear-gradient-2"/><linearGradient id="linear-gradient-7" x1="428.75" y1="380.95" x2="452.87" y2="358.68" xlink:href="#linear-gradient-2"/><linearGradient id="linear-gradient-8" x1="429.3" y1="395.76" x2="441.67" y2="384.34" xlink:href="#linear-gradient-2"/><radialGradient id="radial-gradient-19" cx="335.91" cy="470.66" r="149.87" xlink:href="#radial-gradient-2"/><radialGradient id="radial-gradient-20" cx="428.31" cy="436.17" r="39.07" xlink:href="#radial-gradient-2"/><radialGradient id="radial-gradient-21" cx="122" cy="622.32" r="271.93" xlink:href="#radial-gradient-2"/><radialGradient id="radial-gradient-22" cx="122" cy="521.6" r="275.36" xlink:href="#radial-gradient-2"/><radialGradient id="radial-gradient-23" cx="133.46" cy="593.59" r="248.02" xlink:href="#radial-gradient-2"/><radialGradient id="radial-gradient-24" cx="132.22" cy="485.56" r="246.67" xlink:href="#radial-gradient-2"/><radialGradient id="radial-gradient-25" cx="87.09" cy="580.49" r="24.72" xlink:href="#radial-gradient-2"/><radialGradient id="radial-gradient-26" cx="87.09" cy="471.36" r="24.71" xlink:href="#radial-gradient-2"/><linearGradient id="linear-gradient-9" x1="429.48" y1="395.95" x2="441.85" y2="384.53" xlink:href="#linear-gradient-2"/><linearGradient id="linear-gradient-10" x1="270.19" y1="532.03" x2="312.41" y2="532.03" xlink:href="#linear-gradient-2"/><linearGradient id="linear-gradient-11" x1="264.32" y1="534.4" x2="306.29" y2="539.39" xlink:href="#linear-gradient-2"/><linearGradient id="linear-gradient-12" x1="283.75" y1="533.76" x2="254.62" y2="526.63" xlink:href="#linear-gradient-2"/><linearGradient id="linear-gradient-13" x1="364.87" y1="267.75" x2="392.13" y2="272.17" gradientTransform="matrix(1.33, 0, 0, 1.33, -174.12, -178.38)" xlink:href="#linear-gradient-2"/><radialGradient id="radial-gradient-27" cx="129.7" cy="637.34" r="22.3" gradientTransform="matrix(1.08, 0, 0, -1.05, 144.23, 917.69)" gradientUnits="userSpaceOnUse"><stop offset="0" stop-color="#c7d79b"/><stop offset="0.5" stop-color="#9fc372"/><stop offset="1" stop-color="#73a943"/></radialGradient><radialGradient id="radial-gradient-28" cx="117.02" cy="624.42" r="19.56" xlink:href="#radial-gradient-27"/><radialGradient id="radial-gradient-29" cx="133.46" cy="628.86" r="22.42" xlink:href="#radial-gradient-27"/><radialGradient id="radial-gradient-30" cx="149.34" cy="624.88" r="19.8" xlink:href="#radial-gradient-27"/><linearGradient id="linear-gradient-14" x1="229.46" y1="475.07" x2="271.68" y2="475.07" gradientTransform="matrix(1.73, 0, 0, -1.73, -151.11, 1095.16)" gradientUnits="userSpaceOnUse"><stop offset="0" stop-color="#f7e2e6"/><stop offset="0.01" stop-color="#f7e2e6"/><stop offset="0.45" stop-color="#edc2ce"/><stop offset="1" stop-color="#e2a8bf"/></linearGradient><linearGradient id="linear-gradient-15" x1="223.58" y1="477.44" x2="265.55" y2="482.43" xlink:href="#linear-gradient-2"/><linearGradient id="linear-gradient-16" x1="243.02" y1="476.8" x2="213.89" y2="469.68" xlink:href="#linear-gradient-14"/><linearGradient id="linear-gradient-17" x1="311.92" y1="341.8" x2="339.18" y2="346.22" gradientTransform="matrix(1.33, 0, 0, 1.33, -174.12, -178.38)" xlink:href="#linear-gradient-2"/><linearGradient id="linear-gradient-18" x1="230.85" y1="423.71" x2="265.77" y2="423.71" xlink:href="#linear-gradient-14"/><linearGradient id="linear-gradient-19" x1="224.96" y1="426.52" x2="259.67" y2="430.64" xlink:href="#linear-gradient-2"/><linearGradient id="linear-gradient-20" x1="239.78" y1="426.57" x2="215.69" y2="420.68" xlink:href="#linear-gradient-14"/><linearGradient id="linear-gradient-21" x1="312.55" y1="409.13" x2="335.1" y2="412.78" gradientTransform="matrix(1.33, 0, 0, 1.33, -174.12, -178.38)" xlink:href="#linear-gradient-2"/><radialGradient id="radial-gradient-31" cx="113.26" cy="620.13" r="31.56" gradientTransform="matrix(1.08, 0, 0, -1.05, 144.23, 917.69)" xlink:href="#linear-gradient-5"/><linearGradient id="linear-gradient-22" x1="241.31" y1="528.63" x2="252.83" y2="529.12" gradientTransform="matrix(1.73, 0, 0, -1.73, -151.11, 1095.16)" gradientUnits="userSpaceOnUse"><stop offset="0" stop-color="#478442"/><stop offset="0.01" stop-color="#478442"/><stop offset="1" stop-color="#295131"/></linearGradient><radialGradient id="radial-gradient-32" cx="102.5" cy="607.25" r="31.55" gradientTransform="matrix(1.08, 0, 0, -1.05, 144.23, 917.69)" xlink:href="#linear-gradient-5"/><linearGradient id="linear-gradient-23" x1="234.58" y1="520.82" x2="246.12" y2="521.31" xlink:href="#linear-gradient-22"/><radialGradient id="radial-gradient-33" cx="132.35" cy="613.86" r="31.55" gradientTransform="matrix(1.08, 0, 0, -1.05, 144.23, 917.69)" xlink:href="#linear-gradient-5"/><linearGradient id="linear-gradient-24" x1="253.2" y1="524.83" x2="264.74" y2="525.32" xlink:href="#linear-gradient-22"/><linearGradient id="linear-gradient-25" x1="242.43" y1="469.39" x2="284.65" y2="469.39" xlink:href="#linear-gradient-2"/><linearGradient id="linear-gradient-26" x1="236.55" y1="471.76" x2="278.52" y2="476.75" xlink:href="#linear-gradient-2"/><linearGradient id="linear-gradient-27" x1="255.99" y1="471.12" x2="226.87" y2="464" xlink:href="#linear-gradient-2"/><linearGradient id="linear-gradient-28" x1="328.77" y1="349.18" x2="356.04" y2="353.6" gradientTransform="matrix(1.33, 0, 0, 1.33, -174.12, -178.38)" xlink:href="#linear-gradient-2"/><linearGradient id="linear-gradient-29" x1="300.19" y1="463.22" x2="323.91" y2="464.33" xlink:href="#linear-gradient"/><linearGradient id="linear-gradient-30" x1="308.46" y1="471.31" x2="322.12" y2="471.89" gradientTransform="matrix(1.73, 0, 0, -1.73, -151.11, 1095.16)" xlink:href="#radial-gradient-27"/><linearGradient id="linear-gradient-31" x1="283.02" y1="459.94" x2="306.74" y2="461.05" xlink:href="#linear-gradient"/><linearGradient id="linear-gradient-32" x1="291.31" y1="468.03" x2="304.95" y2="468.6" gradientTransform="matrix(1.73, 0, 0, -1.73, -151.11, 1095.16)" xlink:href="#radial-gradient-27"/></defs><title>fridge</title><g id="Layer_1-2" data-name="Layer 1"><path id="path71583" class="cls-2" d="M554.89,363c0,1.82,2.32,3.31,5.16,3.31s5.17-1.49,5.17-3.31V235.18c0-1.83-2.31-3.31-5.17-3.31s-5.16,1.48-5.16,3.31Z" transform="translate(-44.81 -64.57)"/><path id="path71585" class="cls-3" d="M562.23,363.14c.34-.09.29-.16.29-.16V235.19c-.12,0,0,0-.29-.15a4.58,4.58,0,0,0-4.35,0c-.36.09-.32.13-.32.15V363c.12,0,.05,0,.32.16a4.65,4.65,0,0,0,4.35,0Zm-10-.16V235.19c.3-4.24,4.24-5.9,7.85-5.94s7.53,1.7,7.85,5.94V363c-.32,4.24-4.22,5.9-7.85,5.94s-7.53-1.7-7.85-5.95" transform="translate(-44.81 -64.57)"/><path id="path71587" class="cls-4" d="M562.64,445.11c0,4.07-18.36,13.91-18.36,13.91S406.6,427.72,391.7,396.09L393,109.33c2-16.46,102,11.07,145.85,35.05,12.14,6.65,20,13,20.25,18.11C559.09,162.49,562.65,401.07,562.64,445.11Z" transform="translate(-44.81 -64.57)"/><path id="path71589" class="cls-5" d="M474.41,436.92c32.51,10.56,63.5,17.92,69.45,19.3,1.39-.77,4.27-2.39,7.26-4.28,4-2.43,8.45-6,8.83-7,0-44.38-3.56-282.12-3.56-282.31.31-2.72-6.84-9.62-18.87-15.94-34-18.69-103.84-39.82-131.62-39.74a25.64,25.64,0,0,0-8.26,1c-1.75.7-1.92,1.16-2,1.34l-1.28,286.19C401.18,409.36,438.79,425.59,474.41,436.92Zm-1.7,5c-36.46-12.07-74.62-27-83.47-44.73l-.23-1.12,1.29-287c1.28-6.23,7.87-7.22,15.6-7.31,29.82.09,99,21.21,134.25,40.37,12.23,7,20.76,12.8,21.62,20.36,0,0,3.56,238.56,3.56,282.66-.84,5-5.72,7.21-10.39,10.68-4.7,3.05-9.33,5.52-9.39,5.55l-1.9.24s-34.52-7.83-70.94-19.66" transform="translate(-44.81 -64.57)"/><path id="path71591" class="cls-6" d="M155.59,590.34a5.9,5.9,0,0,1-2.39-.26c-4.1-3.34-1.61-88.21.26-102.11-4.17-12.76-.72-44.05.14-63.75-5.44-20.85.78-316,.78-316s89.25-4.55,158.49-4.54c43.46,0,79.05,1.8,79.69,7.65,2.63,24,0,244.53-2.31,287.4-2.58,10.44,2.05,38.25-2.31,62.58-.6,57,0,92.72-2.3,98.51C380.21,563.13,180,590.34,155.59,590.34ZM371.67,474.5,178.06,492.16s19,6.64,58,6.64A424.83,424.83,0,0,0,294,494.56C356.7,485.89,371.67,474.5,371.67,474.5Zm.87-62.45L179.38,434.11s16.12,2.82,46.31,2.82a597,597,0,0,0,68.48-4.19C357,425.46,372.54,412.05,372.54,412.05Z" transform="translate(-44.81 -64.57)"/><path id="path71593" class="cls-5" d="M155.57,587.7c22.68.1,210.53-25.39,227.87-29.92,1.56-7.5,1.31-43.19,1.84-96.92a147.57,147.57,0,0,0,1.91-26c0-9.45-.5-18.34-.5-25.47,0-4.47.16-8.24.86-10.76,1.61-30,3.38-148,3.38-223.68,0-31.45-.33-55.79-1-63a2.21,2.21,0,0,0-.51-.31,17.36,17.36,0,0,0-4.11-1.4,117,117,0,0,0-16.74-2.29c-14.28-1.18-34-1.64-55.66-1.62-62.41,0-141,3.69-155.88,4.41-.39,19.17-3,147.21-3,234,0,41.07.65,73.45,2.16,78.86l-2.6.65,2.6-.65.09.77c-.56,12.69-2.19,30-2.2,44,0,7.9.55,14.8,1.93,18.84l.11,1.16c-1.1,8-2.49,42.26-2.5,68.65-.09,14.4.62,27.37,1.38,30.72Zm-1.22,5.19a4.25,4.25,0,0,1-2.87-.79c-2.6-3-2-6.06-2.73-12.35-.35-6-.49-14-.49-22.79,0-26.1,1.3-59.2,2.46-68.77-1.56-5.13-2-12.05-2-19.88,0-14.25,1.6-31.41,2.18-43.87-1.78-8.12-2.21-39.08-2.23-79.74,0-94,3-236.52,3-236.52a2.66,2.66,0,0,1,2.54-2.58S243.5,101,312.88,101c32.69,0,60.75,1,73.7,4.09,4.17,1.23,7.59,1.78,8.65,5.93.78,7.46,1.08,31.79,1.09,63.86,0,75.81-1.76,193.67-3.47,224.47a43.34,43.34,0,0,0-.79,10c0,6.89.5,15.85.53,25.47a153.37,153.37,0,0,1-2,26.52c-.68,57.23.2,92-2.49,99.44L387,562.07c-3.08,1.52-15.52,3.32-35.81,6.5-19.94,3-46.25,6.73-73.13,10.35-53.89,7.21-109.8,14-122.53,14a7.77,7.77,0,0,0-1.22-.05" transform="translate(-44.81 -64.57)"/><path id="path71595" class="cls-7" d="M49.5,502.76c3.41,7.21,104.39,86,104.39,86l.49-472.88S52.77,69.17,50.64,78.86C48.36,89.29,45.58,494.53,49.5,502.76Z" transform="translate(-44.81 -64.57)"/><path id="path71597" class="cls-5" d="M49.48,502.74l2-.88h-.06Zm55.19,43.72c19.27,15.44,38.24,30.36,46.54,36.87l.47-465.73c-5.22-2.35-23.05-10.37-42.27-18.4-23-9.6-48-19.19-55.71-19l-.53,0c-1.32,13.49-3,174.63-3,293.42,0,67.85.54,123,1.79,128.16h0C53.33,504.34,79.68,526.54,104.67,546.46Zm47.52,44.38s-25.25-19.71-50.93-40.34C75.34,529.53,50,509.15,47,503.85h0c-1.24-3.45-1.34-16.94-1.79-40.42-.31-23.15-.43-54.71-.44-89.83C44.87,251.06,46.43,86,48,78.35c.84-3.12,3.8-3.47,5.7-3.44,19.08.28,101.45,38.57,101.82,38.62a2.56,2.56,0,0,1,1.52,2.38l-.47,472.89a2.64,2.64,0,0,1-1.52,2.35,2.78,2.78,0,0,1-1.18.27,2.68,2.68,0,0,1-1.68-.58" transform="translate(-44.81 -64.57)"/><path id="path71599" class="cls-8" d="M154.38,117.84c168.19-14.62,236.11-9.59,236.11-9.59s-135.25-39.93-143.65-41-195,10.08-195,10.08S151.42,110.45,154.38,117.84Z" transform="translate(-44.81 -64.57)"/><path id="path71601" class="cls-5" d="M138.15,106c8.49,3.89,14.32,6,17.35,9.13,99-8.59,163.1-10.33,199-10.33,5.79,0,10.85,0,15.21.12-38.05-11.15-117.48-34.36-123.19-35-.12,0-.85-.06-1.79-.06-18.35,0-138.57,7-179.31,9.36C83.71,85.44,117.47,97.21,138.15,106Zm16.21,11.85,2.51-1Zm-2.47,1h0a6.49,6.49,0,0,0-.75-.63,33.54,33.54,0,0,0-3.32-2c-2.86-1.54-6.95-3.42-11.77-5.47-9.69-4.11-22.4-8.93-35-13.5C75.79,88.12,51,79.87,50.91,79.85A2.61,2.61,0,0,1,49.12,77a2.66,2.66,0,0,1,2.49-2.29c.07,0,170.43-10.13,193.11-10.16,1.08,0,1.82,0,2.45.09,9.26,1.22,143.9,41,144.1,41.07a2.61,2.61,0,0,1,1.85,3,2.67,2.67,0,0,1-2.85,2.14s-11.13-.84-35.78-.84c-35.88,0-100.26,1.76-199.88,10.43h-.21a2.73,2.73,0,0,1-2.51-1.58" transform="translate(-44.81 -64.57)"/><g class="cls-9"><g id="g71605"><path id="image71603" class="cls-10" d="M373.16,411.73V438H178.72V411.72Z" transform="translate(-44.81 -64.57)"/></g></g><g class="cls-11"><g id="g71609"><path id="image71607" class="cls-10" d="M372.38,474.13v25.52H177.55V474.12Z" transform="translate(-44.81 -64.57)"/></g></g><path id="path71611" class="cls-12" d="M157.44,423.59c.23,2.23,1.93,3.89,3.79,3.69L387,403.93c1.87-.18,3.19-2.16,3-4.37s-1.92-3.9-3.79-3.69L160.41,419.2C158.54,419.4,157.21,421.37,157.44,423.59Z" transform="translate(-44.81 -64.57)"/><path id="path71613" class="cls-3" d="M160.91,424.66h0l225.78-23.35s.56-.25.58-1.28v-.23a1.52,1.52,0,0,0-.81-1.34v-1.68l0,1.7L160.69,421.81a1.39,1.39,0,0,0-.6,1.3h-.61l-2,.49,2.67-.27A1.46,1.46,0,0,0,160.91,424.66Zm0,5.25a6.41,6.41,0,0,1-6.14-6,3.4,3.4,0,0,1-.06-.83,6.32,6.32,0,0,1,5.42-6.53l225.25-23.22a4,4,0,0,1,1.11-.15c3.53.09,5.87,2.93,6.19,6.53V400a6.3,6.3,0,0,1-5.4,6.51l-226,23.37h-.32" transform="translate(-44.81 -64.57)"/><path id="path71615" class="cls-13" d="M156.29,485.06c.24,2.23,1.92,3.88,3.79,3.69l225.79-23.44c1.86-.18,3.19-2.16,3-4.39s-1.92-3.87-3.78-3.68l-225.8,23.44C157.39,480.88,156.07,482.84,156.29,485.06Z" transform="translate(-44.81 -64.57)"/><path id="path71617" class="cls-3" d="M159.78,486.13l225.79-23.42a1.44,1.44,0,0,0,.59-1.32v-.22a1.58,1.58,0,0,0-.83-1.33L159.56,483.3s-.61.25-.61,1.26h-.51l-2.16.51,2.67-.29a1.59,1.59,0,0,0,.81,1.35h0Zm0,5.25a6.39,6.39,0,0,1-6.1-5.76,2.85,2.85,0,0,1-.09-1.06,6.32,6.32,0,0,1,5.4-6.51l225.62-23.42a1.52,1.52,0,0,1,.62,0h.12c3.53.08,5.86,2.93,6.17,6.32v.47a6.26,6.26,0,0,1-5.34,6.53L160,491.38h-.2" transform="translate(-44.81 -64.57)"/><path id="path71619" class="cls-5" d="M135.11,576l1.18-465.87a2.7,2.7,0,0,1,5.39,0l-1.19,465.89a2.69,2.69,0,0,1-5.38,0" transform="translate(-44.81 -64.57)"/><path id="path71621" class="cls-14" d="M543.13,444c-4.41,10.43-149-32.46-145.7-55.64l1.11-268.86c2.23-19.7,142.4,27.82,143.5,49.84Z" transform="translate(-44.81 -64.57)"/><path id="path71623" class="cls-5" d="M540.42,442.66l-1.08-273.25c.82-5.83-23.63-21.11-52.22-31.85-28.52-11.25-61.46-20.22-77.41-20.18-6.63,0-8.49,1.7-8.49,2.07l-1.13,268.88L400,389v0c-1.31,6.76,26.6,22.7,58.08,33.59,31.35,11.46,66.6,20.3,79.3,20.26A12.5,12.5,0,0,0,540.42,442.66ZM456.2,427.6c-31.72-12.13-60.27-24.42-61.56-38.52a5.81,5.81,0,0,1,.1-1.1l1.12-268.81c1.05-5.89,7.15-7,13.85-7,17.62,0,50.38,9.16,79.4,20.56,28.95,11.92,53.85,23.9,55.62,36.58l1.08,274.66-.22,1c-1.94,3.31-4.8,3-8.21,3.22-14.47-.05-49.29-9-81.18-20.57" transform="translate(-44.81 -64.57)"/><path id="path71625" class="cls-15" d="M483.47,177.66c.61,9.58-5.06,17.74-12.64,18.24S456.59,189,456,179.44s5.06-17.74,12.65-18.23S482.85,168.07,483.47,177.66Z" transform="translate(-44.81 -64.57)"/><path id="path71627" class="cls-5" d="M469.31,162.47c-.18,0-.37,0-.61.05-6.27.33-11.44,7-11.45,15.5,0,.4,0,.85.06,1.32.53,8.8,6.47,15.33,12.78,15.26h.64c6.22-.38,11.41-7.05,11.41-15.53,0-.43,0-.89,0-1.33-.59-8.77-6.46-15.26-12.73-15.26Zm-14.67,17.05c0-.48-.08-1-.08-1.5,0-9.43,5.76-17.55,13.93-18.13.25,0,.53,0,.82,0,8.26.07,14.82,8,15.49,17.72l-1.32.08,1.32,0c0,.49,0,1,0,1.46,0,9.41-5.76,17.53-13.92,18.16h-.82c-8.26-.06-14.86-8-15.45-17.71" transform="translate(-44.81 -64.57)"/><path id="path71629" class="cls-16" d="M454.81,169.28c0,9.6-6.17,17.38-13.78,17.38s-13.75-7.78-13.75-17.38S433.44,151.9,441,151.9,454.81,159.68,454.81,169.28Z" transform="translate(-44.81 -64.57)"/><path id="path71631" class="cls-5" d="M428.62,169.27c0,9.12,5.85,16,12.4,16.08s12.42-7,12.42-16.08S447.59,153.22,441,153.2,428.62,160.15,428.62,169.27Zm-2.69,0c0-10.09,6.48-18.61,15.1-18.68s15.1,8.6,15.1,18.68h0c0,10.1-6.51,18.64-15.14,18.7-8.61-.09-15.08-8.61-15.09-18.7" transform="translate(-44.81 -64.57)"/><path id="path71633" class="cls-17" d="M467.43,182c0,9.6-6.18,17.38-13.77,17.38S439.9,191.64,439.9,182s6.17-17.37,13.77-17.37S467.43,172.44,467.43,182Z" transform="translate(-44.81 -64.57)"/><path id="path71635" class="cls-5" d="M441.23,182c0,9.12,5.85,16.06,12.43,16.07s12.41-7,12.41-16.07S460.22,166,453.67,166,441.23,172.92,441.23,182Zm-2.69,0c0-10.07,6.48-18.61,15.13-18.68s15.09,8.59,15.11,18.68-6.51,18.64-15.12,18.7-15.12-8.61-15.12-18.7" transform="translate(-44.81 -64.57)"/><path id="path71637" class="cls-18" d="M435.32,169.29c0,9.6-6.18,17.38-13.78,17.38s-13.77-7.78-13.77-17.38,6.17-17.38,13.77-17.38S435.32,159.69,435.32,169.29Z" transform="translate(-44.81 -64.57)"/><path id="path71639" class="cls-5" d="M409.1,169.28c0,9.11,5.85,16,12.43,16.06S434,178.4,434,169.28h0c0-9.1-5.87-16.05-12.44-16.05S409.1,160.18,409.1,169.28Zm-2.69,0c0-10.1,6.49-18.61,15.12-18.68s15.11,8.58,15.11,18.68h0c0,10.1-6.51,18.63-15.13,18.69s-15.09-8.59-15.12-18.69" transform="translate(-44.81 -64.57)"/><path id="path71641" class="cls-19" d="M520.6,234.19,404.69,191.3V167L520.6,209.85Z" transform="translate(-44.81 -64.57)"/><path id="path71643" class="cls-5" d="M406,190.39l113.22,41.89V210.75L406,168.87Zm114.56,43.79.47-1.23Zm-.49,1.24L404.21,192.53l-.87-1.24V167a1.28,1.28,0,0,1,.59-1.07,1.34,1.34,0,0,1,1.25-.16l115.88,42.9.87,1.23v24.32a1.26,1.26,0,0,1-.57,1.08,1.37,1.37,0,0,1-.78.25,1.27,1.27,0,0,1-.47-.09" transform="translate(-44.81 -64.57)"/><path id="path71645" class="cls-20" d="M520.6,209.85l18-2.31v23.17l-18,3.48Z" transform="translate(-44.81 -64.57)"/><path id="path71647" class="cls-5" d="M521.92,232.59l15.28-3V209l-15.27,2Zm-2.18,2.61a1.27,1.27,0,0,1-.5-1V209.85a1.34,1.34,0,0,1,1.18-1.31l18-2.31a1.39,1.39,0,0,1,1.06.3,1.36,1.36,0,0,1,.47,1v23.17a1.35,1.35,0,0,1-1.1,1.29l-18,3.48-.25,0a1.36,1.36,0,0,1-.86-.3" transform="translate(-44.81 -64.57)"/><path id="path71649" class="cls-21" d="M423.28,229.44V216c0-2-2-3.63-4.41-3.63s-4.4,1.62-4.4,3.62v13.49c-4.11,3.8-7,12.42-7,20.07,0,10.17,5.09,14.81,11.39,14.81s11.4-4.64,11.4-14.81C430.27,241.86,427.38,233.24,423.28,229.44Z" transform="translate(-44.81 -64.57)"/><path id="path71651" class="cls-5" d="M415.78,216v13.49l-.4.95c-3.66,3.31-6.62,11.78-6.56,19.11.12,9.78,4.52,13.42,10,13.49s9.92-3.71,10.05-13.49c0-7.33-2.89-15.78-6.58-19.11l.95-.95h0l-.95.95-.41-.95V216c0-1.11-1.19-2.33-3.06-2.33S415.81,214.85,415.78,216Zm-9.65,33.55c0-7.72,2.68-16.22,7-20.62V216c0-2.91,2.72-4.95,5.74-4.95s5.72,2,5.75,5v12.93c4.28,4.41,6.94,12.89,7,20.61,0,10.58-5.69,16.11-12.76,16.11s-12.73-5.53-12.73-16.11" transform="translate(-44.81 -64.57)"/><path id="path71653" class="cls-22" d="M413.54,208.61h10.3v9.66h-10.3Z" transform="translate(-44.81 -64.57)"/><path id="path71655" class="cls-5" d="M414.85,217h7.64v-7h-7.63Zm9,1.32v0Zm-10.29,1.3a1.35,1.35,0,0,1-1-.37,1.27,1.27,0,0,1-.39-.93V208.6a1.23,1.23,0,0,1,.39-.92,1.39,1.39,0,0,1,1-.37h10.29a1.33,1.33,0,0,1,1.35,1.3v9.66a1.39,1.39,0,0,1-.41.93,1.36,1.36,0,0,1-.94.37H413.54" transform="translate(-44.81 -64.57)"/><path id="path71657" class="cls-23" d="M442.17,266.26l-18.54-4.92.85-22.07,19,4.64Z" transform="translate(-44.81 -64.57)"/><path id="path71659" class="cls-5" d="M425,260.33l15.9,4.22,1.16-19.62-16.32-4Zm17.16,5.93.35-1.29Zm-.35,1.25-18.55-4.9a1.31,1.31,0,0,1-1-1.33l.84-22.07A1.34,1.34,0,0,1,424.8,238l19,4.64a1.31,1.31,0,0,1,1,1.35l-1.31,22.34a1.38,1.38,0,0,1-.54,1,1.33,1.33,0,0,1-.79.25,1.42,1.42,0,0,1-.36-.05" transform="translate(-44.81 -64.57)"/><path id="path71661" class="cls-24" d="M458.94,265.71l-18.17,1.2L443,243.47l18-1.55Z" transform="translate(-44.81 -64.57)"/><path id="path71663" class="cls-5" d="M444.17,244.7l-1.92,20.79,15.44-1,1.8-21.1Zm-4.38,23.13a1.24,1.24,0,0,1-.36-1l2.16-23.45a1.34,1.34,0,0,1,1.23-1.19l18-1.55a1.37,1.37,0,0,1,1.07.37,1.22,1.22,0,0,1,.38,1.05l-2,23.78A1.36,1.36,0,0,1,459,267l-18.16,1.19h-.08a1.37,1.37,0,0,1-1-.38" transform="translate(-44.81 -64.57)"/><path id="path71665" class="cls-25" d="M442.94,243.57,424.66,239l18.52-.84,18.05,3.94Z" transform="translate(-44.81 -64.57)"/><path id="path71667" class="cls-5" d="M433.71,239.91l9.31,2.32,9.33-.75-9.1-2Zm9.22,3.67-.34,1.25-18.28-4.55a1.29,1.29,0,0,1-1-1.41,1.31,1.31,0,0,1,1.27-1.17l18.88-.82,18,3.94a1.32,1.32,0,0,1,1.07,1.37,1.38,1.38,0,0,1-1.25,1.23l-18.27,1.46-.12-1.3" transform="translate(-44.81 -64.57)"/><path id="path71669" class="cls-26" d="M520.59,311.83,405.47,269.32v-34l115.12,42.5Z" transform="translate(-44.81 -64.57)"/><path id="path71671" class="cls-5" d="M406.81,268.41l112.43,41.51V278.75L406.82,237.24Zm113.78,43.43.48-1.24Zm-.48,1.21L405,270.56l-.85-1.24v-34a1.35,1.35,0,0,1,1.81-1.24l115.14,42.52.86,1.21v34a1.28,1.28,0,0,1-.59,1.08,1.33,1.33,0,0,1-.74.22,1.41,1.41,0,0,1-.49-.09" transform="translate(-44.81 -64.57)"/><path id="path71673" class="cls-27" d="M520.59,277.84l19.12-3.23V307l-19.12,4.85Z" transform="translate(-44.81 -64.57)"/><path id="path71675" class="cls-5" d="M521.94,310.12l16.42-4.18V276.15l-16.42,2.79Zm-2.18,2.74a1.25,1.25,0,0,1-.53-1v-34a1.31,1.31,0,0,1,1.12-1.3l19.11-3.23a1.43,1.43,0,0,1,1.12.29,1.29,1.29,0,0,1,.45,1V307a1.32,1.32,0,0,1-1,1.27l-19.11,4.86-.3,0a1.5,1.5,0,0,1-.86-.28" transform="translate(-44.81 -64.57)"/><path id="path71677" class="cls-28" d="M428.86,321.45V303.22c0-2.71-2.67-4.91-6-4.91s-6,2.19-6,4.91v18.23c-5.54,5.14-9.45,16.79-9.45,27.14,0,13.77,6.9,20,15.42,20s15.41-6.26,15.41-20C438.3,338.24,434.41,326.6,428.86,321.45Z" transform="translate(-44.81 -64.57)"/><path id="path71679" class="cls-5" d="M418.25,303.21v18.24l-.4.94c-5.13,4.66-9.1,16.17-9.05,26.2.14,13.36,6.36,18.62,14.07,18.71,7.73-.09,13.95-5.35,14.08-18.7,0-10-3.92-21.52-9-26.21l.92-.94h0l-.92.94-.41-.94V303.22c0-1.81-1.91-3.61-4.64-3.61S418.25,301.41,418.25,303.21Zm-12.14,45.38c.05-10.42,3.7-21.92,9.45-27.68v-17.7c.05-3.62,3.43-6.22,7.32-6.22s7.27,2.6,7.3,6.23V320.9c5.75,5.77,9.41,17.26,9.44,27.7,0,14.15-7.46,21.3-16.75,21.32s-16.73-7.17-16.76-21.33" transform="translate(-44.81 -64.57)"/><path id="path71681" class="cls-29" d="M415.67,293.28H429.6v13H415.67Z" transform="translate(-44.81 -64.57)"/><path id="path71683" class="cls-5" d="M417,305h11.27V294.59H417Zm12.62,1.31v0Zm-13.93,1.32a1.3,1.3,0,0,1-1-.4,1.23,1.23,0,0,1-.39-.92V293.28a1.29,1.29,0,0,1,.39-.94,1.37,1.37,0,0,1,1-.38H429.6a1.27,1.27,0,0,1,.94.41,1.21,1.21,0,0,1,.4.92v13a1.24,1.24,0,0,1-.4.92,1.3,1.3,0,0,1-.94.4H415.67" transform="translate(-44.81 -64.57)"/><path id="path71685" class="cls-30" d="M517.33,409.33l-18.94-8.26-1.27-59.54,19.35,7.39Z" transform="translate(-44.81 -64.57)"/><path id="path71687" class="cls-5" d="M499.69,400.2l16.25,7.09-.81-57.47-16.64-6.35Zm17.07,10.31-18.92-8.24-.79-1.17-1.28-59.54a1.32,1.32,0,0,1,.56-1.11,1.38,1.38,0,0,1,1.26-.15L517,347.68l.86,1.22.85,60.4-1.33,0,.55-1.19-.55,1.19,1.33,0a1.24,1.24,0,0,1-.61,1.13,1.33,1.33,0,0,1-1.29.08" transform="translate(-44.81 -64.57)"/><path id="path71689" class="cls-31" d="M534,403.39l-18,8.11-.08-63.6,17.77-9Z" transform="translate(-44.81 -64.57)"/><path id="path71691" class="cls-5" d="M517.23,348.69l.08,60.75,15.29-6.89-.27-61.48Zm-2,63.9a1.28,1.28,0,0,1-.61-1.1l-.08-63.6.72-1.17,17.78-9a1.39,1.39,0,0,1,1.31.05,1.34,1.34,0,0,1,.63,1.12l.29,64.46-.79,1.2-18,8.1a1.26,1.26,0,0,1-.55.13,1.37,1.37,0,0,1-.74-.22" transform="translate(-44.81 -64.57)"/><path id="path71693" class="cls-32" d="M515.91,348.17l-18.66-7.37,18.36-7.24,18.35,5.8Z" transform="translate(-44.81 -64.57)"/><path id="path71695" class="cls-5" d="M500.82,340.81l15,5.91,14.57-7.11L515.66,335Zm15.07,7.35.51-1.21ZM496.74,342a1.29,1.29,0,0,1-.83-1.22,1.28,1.28,0,0,1,.83-1.21l18.37-7.25.9,0,18.36,5.79a1.3,1.3,0,0,1,.18,2.43l-18,8.79-1.1.05L496.74,342" transform="translate(-44.81 -64.57)"/><path id="path71697" class="cls-33" d="M520.58,413.82l-115.9-46v-34l115.91,46Z" transform="translate(-44.81 -64.57)"/><path id="path71699" class="cls-5" d="M406,367l113.22,44.92V380.72L406,335.79Zm114.56,46.87.51-1.22Zm-.51,1.21-115.9-46-.84-1.22v-34a1.43,1.43,0,0,1,.59-1.11,1.36,1.36,0,0,1,1.27-.11l115.9,46,.82,1.24v34a1.36,1.36,0,0,1-1.33,1.32,1.34,1.34,0,0,1-.51-.11" transform="translate(-44.81 -64.57)"/><path id="path71701" class="cls-34" d="M520.59,379.83l20.25-3.24V409l-20.26,4.86Z" transform="translate(-44.81 -64.57)"/><path id="path71703" class="cls-5" d="M521.92,412.14l17.57-4.21V378.14l-17.57,2.8Zm-2.18,2.7a1.29,1.29,0,0,1-.49-1v-34a1.28,1.28,0,0,1,1.11-1.31l20.27-3.25a1.35,1.35,0,0,1,1.55,1.31V409a1.32,1.32,0,0,1-1,1.27l-20.26,4.86a2,2,0,0,1-.34,0,1.28,1.28,0,0,1-.82-.29" transform="translate(-44.81 -64.57)"/><path id="path71705" class="cls-5" d="M373.14,384.84l0-273.5A1.33,1.33,0,0,1,374.5,110a1.35,1.35,0,0,1,1.35,1.33l0,273.5a1.35,1.35,0,0,1-2.69,0" transform="translate(-44.81 -64.57)"/><path id="path71707" class="cls-5" d="M372.84,383.73l-218-84.61a1.29,1.29,0,0,1-.74-1.7,1.35,1.35,0,0,1,1.75-.74l218,84.63a1.28,1.28,0,0,1,.74,1.7,1.34,1.34,0,0,1-1.25.81,1.32,1.32,0,0,1-.48-.09" transform="translate(-44.81 -64.57)"/><path id="path71709" class="cls-35" d="M382.53,212.16,212.71,177.38l-57.35,5.79,0,45.2L168,237.64Z" transform="translate(-44.81 -64.57)"/><path id="path71711" class="cls-5" d="M156.68,184.35v43.37l11.64,8.54,206-24.46L212.85,178.68Zm10.47,54.32-12.62-9.26-.53-1V183.17a1.31,1.31,0,0,1,1.2-1.3L213,176.09l169.8,34.79-.27,1.27.27-1.27a1.27,1.27,0,0,1,1,1.34,1.28,1.28,0,0,1-1.17,1.24L168.1,238.94l-.95-.27" transform="translate(-44.81 -64.57)"/><path id="path71713" class="cls-36" d="M382.52,326.9,217.3,281.69l-62,5.78v55.64L168,352.37Z" transform="translate(-44.81 -64.57)"/><path id="path71715" class="cls-5" d="M156.67,288.64v53.82L168.3,351l207.4-24.61L217.41,283Zm10.47,64.78-12.62-9.27-.55-1V287.48a1.36,1.36,0,0,1,1.22-1.33l62.46-5.73,165.23,45.22-.37,1.25.37-1.25a1.27,1.27,0,0,1,1,1.36,1.29,1.29,0,0,1-1.18,1.19L168.1,353.68l-1-.26" transform="translate(-44.81 -64.57)"/><path id="path71717" class="cls-37" d="M382.53,212.16,170.26,233v9.27l212.27-20.85Z" transform="translate(-44.81 -64.57)"/><path id="path71719" class="cls-5" d="M171.59,234.19v6.62l209.58-20.57v-6.63Zm-2.26,9.05a1.33,1.33,0,0,1-.43-1V233a1.33,1.33,0,0,1,1.22-1.31l212.27-20.85a1.39,1.39,0,0,1,1,.33,1.43,1.43,0,0,1,.43,1v9.26a1.34,1.34,0,0,1-1.22,1.3L170.37,243.57h-.15a1.36,1.36,0,0,1-.89-.34" transform="translate(-44.81 -64.57)"/><path id="path71721" class="cls-38" d="M380.22,325.73,169.1,346.57v9.28L380.22,335Z" transform="translate(-44.81 -64.57)"/><path id="path71723" class="cls-5" d="M170.43,347.74v6.65l208.45-20.6v-6.6Zm-2.23,9.08a1.3,1.3,0,0,1-.44-1v-9.28a1.28,1.28,0,0,1,1.2-1.29l211.12-20.86a1.3,1.3,0,0,1,1,.33,1.33,1.33,0,0,1,.45,1V335a1.35,1.35,0,0,1-1.22,1.3L169.23,357.14h-.17a1.22,1.22,0,0,1-.86-.33" transform="translate(-44.81 -64.57)"/><path id="path71725" class="cls-5" d="M154,407a1.28,1.28,0,0,1,1.19-1.43l219.16-22a1.31,1.31,0,1,1,.27,2.6l-219.16,22h-.17A1.29,1.29,0,0,1,154,407" transform="translate(-44.81 -64.57)"/><path id="path71727" class="cls-5" d="M155.14,413.93a1.29,1.29,0,0,1,1.2-1.43L388.1,388.15a1.36,1.36,0,0,1,1.47,1.17,1.32,1.32,0,0,1-1.2,1.46L156.61,415.1h-.16a1.34,1.34,0,0,1-1.31-1.18" transform="translate(-44.81 -64.57)"/><path id="path71729" class="cls-39" d="M170.26,233l-14.92-4.64-1.15,9.27,16.07,4.64Z" transform="translate(-44.81 -64.57)"/><path id="path71731" class="cls-5" d="M155.65,236.69l13.26,3.82V234l-12.45-3.88Zm14.21,6.84-16.05-4.62a1.36,1.36,0,0,1-1-1.44l1.14-9.26a1.27,1.27,0,0,1,.62-1,1.37,1.37,0,0,1,1.14-.15l14.91,4.64-.4,1.26.4-1.26.94,1.26v9.27a1.31,1.31,0,0,1-.53,1.05,1.36,1.36,0,0,1-.81.25,1.31,1.31,0,0,1-.39-.05" transform="translate(-44.81 -64.57)"/><path id="path71733" class="cls-40" d="M170.25,347.74l-14.91-4.63-1.16,9.26L170.25,357Z" transform="translate(-44.81 -64.57)"/><path id="path71735" class="cls-5" d="M155.65,351.42l13.25,3.83v-6.54l-12.45-3.87Zm14.2,6.84-16-4.62a1.37,1.37,0,0,1-1-1.43l1.15-9.27a1.26,1.26,0,0,1,.61-.94,1.39,1.39,0,0,1,1.14-.16l14.91,4.64-.4,1.26.4-1.26.94,1.26V357a1.32,1.32,0,0,1-.53,1.06,1.37,1.37,0,0,1-.81.26,1.32,1.32,0,0,1-.39-.06" transform="translate(-44.81 -64.57)"/><path id="path71737" class="cls-41" d="M515.91,348.17l-9.11-10.54-9.55,3.17,18.36-7.24,9-4.1,9.34,9.9Z" transform="translate(-44.81 -64.57)"/><path id="path71739" class="cls-5" d="M516.23,346.52l15.52-7.58-7.47-7.89-8.19,3.74-7.45,2.94Zm-.34,1.65,1-.85Zm-1,.85-8.53-9.86-8.66,2.89a1.38,1.38,0,0,1-1.71-.79,1.31,1.31,0,0,1,.77-1.68l18.29-7.2,9-4.11,1.58.28,9.34,9.91a1.28,1.28,0,0,1,.31,1.12,1.24,1.24,0,0,1-.73,1l-18,8.81a1.43,1.43,0,0,1-.61.14,1.35,1.35,0,0,1-1-.47" transform="translate(-44.81 -64.57)"/><path id="path71741" class="cls-42" d="M306.13,172.08c2,1.31.12,2.24-4.34,2.62l-48.91,4.24c-4.45.39-8.38,0-10.42-1.34l-7.57-4.94c-2-1.31-.1-2.23,4.36-2.61l48.91-4.25c4.43-.38,8.38,0,10.4,1.34Z" transform="translate(-44.81 -64.57)"/><path id="path71743" class="cls-43" d="M242.14,177.68l-7.58-5a1.66,1.66,0,0,1-.82-.91c-.2-.94,2-1.62,5.45-1.9l48.91-4.25c.28,0,.54,0,.82-.06,4.21-.28,8,.18,10,1.46l7.58,4.94-.33.07-.34.07-7.57-4.94c-1.82-1.18-5.25-1.6-9.25-1.34l-.79.06-48.91,4.24c-3.33.3-5,.83-4.8,1.6,0,.25.29.52.75.82l7.58,4.95c1.83,1.18,5.25,1.6,9.26,1.34l.78-.06,48.91-4.24c3.32-.3,5-.85,4.8-1.61-.05-.24-.29-.51-.76-.82l.34-.07.33-.07a1.71,1.71,0,0,1,.83.92c.21.93-2,1.61-5.45,1.89l-48.93,4.25-.8.06h0C247.87,179.41,244.09,179,242.14,177.68Z" transform="translate(-44.81 -64.57)"/><path id="path71745" class="cls-44" d="M308.23,198.9l-.32-25.63-1,0c-.26.64-2.12,1.11-5.13,1.37l-48.93,4.22c-4.44.38-8.36.05-10.33-1.1l-7.4-4.35c-.72-.44-1.47-1.13-1.21-1.46l-.72.41s-.09,26.07,1,27.58c.5.66,7.76,4.59,7.76,4.59,1.89.81,5.88.95,10.46.57l50.39-4.29C307.41,200.43,308.64,199.92,308.23,198.9Z" transform="translate(-44.81 -64.57)"/><path id="path71747" class="cls-5" d="M251.24,205.08l1.16-.08,50.39-4.3c4.25-.38,5.24-.76,5.13-1.56l-.06-.19.37,0-.38,0-.31-25.53h-.33c-.49.67-2.49,1.13-5.38,1.37L252.9,179l-.88.06c-4.19.28-7.91-.1-9.82-1.22l-7.39-4.35a3.44,3.44,0,0,1-1.23-1.1h0c0,.35,0,23.84.38,25.79a4.27,4.27,0,0,0,.65,1.72c.44.62,7.69,4.57,7.69,4.56C243.88,205.15,247.23,205.35,251.24,205.08Zm-9.56-.45s-7.24-3.91-7.8-4.63a4.75,4.75,0,0,1-.67-1.77c-.43-2.11-.38-25.83-.38-25.83v0l.05,0,.74-.43.67.08,0,.2c.06.32.65.84,1.22,1.18l7.4,4.34c1.74,1,5.12,1.37,9.09,1.12l.87-.07,48.9-4.22c3-.25,4.62-.7,4.83-1.24l.05-.12h.34l1.32,0,.33,25.76.06.2c.24.94-1.49,1.51-5.77,1.86l-50.39,4.29-1.2.09c-4.14.27-7.74.08-9.61-.7" transform="translate(-44.81 -64.57)"/><path id="path71749" class="cls-45" d="M301.79,174.7l-48.91,4.24c-4.45.39-8.38,0-10.42-1.34l-7.57-4.94c-2-1.31-.11-2.23,4.35-2.61l48.92-4.25c4.43-.38,8.38,0,10.4,1.34l7.57,4.94C308.15,173.39,306.24,174.32,301.79,174.7Zm5.43-2.51L299.35,167c-2.08-1.38-6.17-1.83-10.76-1.43l-50.51,4.39c-4.58.4-6.55,1.36-4.47,2.76l7.88,5.24c2.08,1.39,6.17,1.83,10.76,1.44l50.52-4.4c4.58-.4,6.54-1.37,4.45-2.76" transform="translate(-44.81 -64.57)"/><path id="path71751" class="cls-5" d="M288.18,165.93l-48.91,4.24c-3.33.3-5,.83-4.8,1.6,0,.25.29.52.75.82l7.57,4.95c1.84,1.18,5.26,1.6,9.27,1.34l.78-.06,48.91-4.24c3.32-.3,4.95-.85,4.8-1.61-.06-.24-.29-.51-.76-.82l-7.57-4.94c-1.82-1.18-5.25-1.6-9.25-1.34Zm-47,12-7.88-5.23c-.51-.35-.8-.67-.86-1-.23-1,2-1.69,5.6-2l50.51-4.39.81-.06c4.38-.3,8.32.2,10.33,1.55l7.87,5.25-.33.06-.32.08L299,167c-1.93-1.26-5.47-1.71-9.61-1.44h-.14c4.06-.24,7.7.23,9.6,1.48l7.58,4.94a1.71,1.71,0,0,1,.83.92c.21.93-2,1.61-5.45,1.89l-48.93,4.25-.8.06c-4.23.28-8-.17-10-1.45l-7.58-5c-.5-.32-.76-.61-.82-.91-.19-.82,1.45-1.43,4.15-1.77-3.27.31-4.89.87-4.72,1.67,0,.26.29.56.78.87l7.87,5.24c1.92,1.27,5.45,1.71,9.59,1.44l.79-.06,50.52-4.38c3.43-.31,5.12-.88,5-1.7-.05-.26-.3-.55-.78-.86l.32-.08.33-.06a1.83,1.83,0,0,1,.87,1c.21,1-2.05,1.69-5.61,2l-50.52,4.38-.83.07h0c-4.35.28-8.23-.2-10.25-1.56" transform="translate(-44.81 -64.57)"/><path id="path71753" class="cls-46" d="M188.06,186.25c-4.12-6.15-14.54-25.3-9-26.19s7.68.07,9-4.82,7-5.4,8.8-4,5.43,4.69,10.53,3.48,13.89,1.18,15,3.55,4,5.31,5.93,7.56-4.74,14.75-7.31,19.41-6.3,15.74-11.18,15.29S188.06,186.25,188.06,186.25Z" transform="translate(-44.81 -64.57)"/><path id="path71755" class="cls-5" d="M209.87,200h.26c4,.24,8-10.35,10.42-15,2.24-4.06,7.62-14.29,7.6-17.9a1.32,1.32,0,0,0-.23-.92c-1.9-2.26-4.77-5.19-6-7.68-.6-1.51-6.67-3.68-11.44-3.61a12.73,12.73,0,0,0-3,.33,11.17,11.17,0,0,1-2.36.27c-4.17,0-7.12-2.66-8.63-3.84a3.75,3.75,0,0,0-2.18-.59,5.81,5.81,0,0,0-5.75,4.31c-1.36,5.18-4.15,4.41-9.47,5.2-.79.14-1.08.64-1.13,2,0,5.22,7.22,18.48,10.49,23.34C189.75,186.92,205.67,199.74,209.87,200Zm-.05,1.05c-5.33-.57-22-14.4-22.1-14.4l.33-.42-.45.29c-3.31-5-10.65-18.09-10.71-24,0-1.48.57-2.83,2.06-3,5.77-1,7.28.15,8.59-4.45a6.85,6.85,0,0,1,6.79-5.06,4.76,4.76,0,0,1,2.85.78c1.56,1.24,4.26,3.64,8,3.64a9.55,9.55,0,0,0,2.1-.26,14.08,14.08,0,0,1,3.27-.35c5.09.08,11.06,1.85,12.4,4.2,1.06,2.25,3.89,5.18,5.85,7.45a2.5,2.5,0,0,1,.47,1.61c0,4.25-5.49,14.24-7.71,18.38-2.59,4.46-5.9,15.33-11.39,15.57h-.31" transform="translate(-44.81 -64.57)"/><path id="path71757" class="cls-47" d="M174.73,194.92c-3.27-5.66-11.25-22.91-6.18-22.71s7,1.32,8.54-2.41,6.75-3.22,8.29-1.79,4.57,4.73,9.27,4.57S207.18,175.85,208,178s3.22,5,4.81,7.11-5.43,11.18-8.12,14.52-6.91,11.73-11.3,10.56S174.73,194.92,174.73,194.92Z" transform="translate(-44.81 -64.57)"/><path id="path71759" class="cls-5" d="M193.54,209.62a2.92,2.92,0,0,0,.73.09c3.45.15,7.53-7.2,10-10.46,2.39-2.92,8.32-10.77,8.22-13.37a1,1,0,0,0-.12-.53c-1.58-2.13-3.94-5-4.87-7.19-.5-1.63-8.11-5.16-12.57-5.07a1.75,1.75,0,0,0-.34,0,1.19,1.19,0,0,0-.32,0c-4.78,0-7.82-3.33-9.29-4.69a4.84,4.84,0,0,0-3.15-.94,4.34,4.34,0,0,0-4.29,2.52c-.92,2.34-2.37,3.13-4.25,3.07-1.26,0-2.77-.25-4.9-.34-.69,0-.93.41-1,1.77-.05,4.56,5.21,15.79,7.72,20.11C176.13,195.52,189.7,208.66,193.54,209.62Zm-.27,1c-4.77-1.32-18.86-15.32-18.94-15.35l.4-.37-.47.27c-2.55-4.46-7.89-15.57-7.92-20.7,0-1.46.57-2.83,2.09-2.83l.12,0c2.08.09,3.63.33,4.76.31,1.65,0,2.28-.29,3.27-2.4a5.42,5.42,0,0,1,5.27-3.19,6.2,6.2,0,0,1,3.9,1.23c1.51,1.45,4.31,4.43,8.54,4.4l.32,0a1.09,1.09,0,0,1,.34,0c5,.09,12.35,3.2,13.58,5.74.79,1.95,3.14,4.83,4.74,7a2,2,0,0,1,.31,1.14c-.09,3.51-6,10.92-8.44,14s-6.19,10.73-10.87,10.89a3.72,3.72,0,0,1-1-.14" transform="translate(-44.81 -64.57)"/><path id="path71761" class="cls-48" d="M189.45,192.45c-2.9-6.74-9.63-27.31-4-27.25s7.54,1.31,9.75-3.26,7.88-4.15,9.42-2.47,4.47,5.53,9.69,5.17,13.48,3.48,14.18,6,2.94,5.88,4.42,8.41-7.4,13.75-10.8,17.91-9.12,14.45-13.82,13.2S189.45,192.45,189.45,192.45Z" transform="translate(-44.81 -64.57)"/><path id="path71763" class="cls-5" d="M208.39,209.63a3.61,3.61,0,0,0,.67.09c3.92.18,9.46-9.1,12.62-13.08,3.08-3.79,10.92-13.85,10.82-16.87a2.09,2.09,0,0,0-.06-.46c-1.5-2.51-3.76-5.88-4.49-8.52-.37-1.89-8-5.77-12.95-5.66h-.69a6.19,6.19,0,0,1-.73,0c-5.09,0-8-3.79-9.39-5.35a4.23,4.23,0,0,0-3.09-1,5.79,5.79,0,0,0-5.43,3.36c-1.42,3-3.11,3.79-5.39,3.75-1.28,0-2.77-.17-4.91-.26v0c-1,0-1.56,1.06-1.59,3.47,0,6.13,4,18.16,6.13,23C191,193.34,204.28,208.66,208.39,209.63Zm-.26,1c-5.16-1.46-19-17.84-19.11-17.88l.43-.34-.5.2c-2.11-4.93-6.22-17-6.25-23.48,0-2.41.59-4.47,2.67-4.53l.1,0c2.06,0,3.6.2,4.81.2,2.07-.07,2.95-.35,4.43-3.15a6.92,6.92,0,0,1,6.39-4,5.49,5.49,0,0,1,3.9,1.36c1.48,1.65,4.1,5,8.58,5h.66c.25,0,.5,0,.76,0,5.49.11,13,3.5,14,6.43.62,2.38,2.89,5.75,4.37,8.3a2.23,2.23,0,0,1,.23,1c-.12,3.94-8,13.59-11.06,17.51s-8.25,13.32-13.46,13.5a4.47,4.47,0,0,1-.93-.11" transform="translate(-44.81 -64.57)"/><path id="path71765" class="cls-49" d="M206.07,187.56c-.37-6.44.23-25.26,4.72-23s5.69,4,8.8,1.27,7.56-.16,8.3,1.76,2,6.11,6.31,7.88,9.84,8,9.66,10.3.65,5.78,1.12,8.36-10,7.91-13.92,9.82-11.55,7.8-15,5S206.07,187.56,206.07,187.56Z" transform="translate(-44.81 -64.57)"/><path id="path71767" class="cls-5" d="M216.44,208.48a2.91,2.91,0,0,0,2,.63c3.51,0,9.16-4,12.4-5.65,3.8-1.74,13.94-7.34,13.62-9.19v-.07a48.69,48.69,0,0,1-1.16-7.79c0-.27,0-.51.12-.38a.49.49,0,0,1-.1-.39c.13-1.84-5.3-8.15-9.31-9.7-4.58-1.89-5.86-6.3-6.61-8.19-.38-1.06-2.52-2.65-4.64-2.62a4.13,4.13,0,0,0-2.8,1.08,5,5,0,0,1-3.22,1.52c-1.87,0-3.35-1.33-6.19-2.74a1.24,1.24,0,0,0-.48-.13c-.88-.11-2.19,2.54-2.71,6.46a85,85,0,0,0-.84,12.42c0,1.46.06,2.74.11,3.74C207.18,189,213.4,206.08,216.44,208.48Zm-.72.81c-3.7-3.17-10.12-21.5-10.17-21.56l.52-.17-.54,0c-.07-1-.12-2.35-.12-3.85.21-7.55.41-19.36,4.63-19.91a2.11,2.11,0,0,1,1,.24c2.88,1.47,4.45,2.64,5.68,2.6a4,4,0,0,0,2.5-1.23,5.15,5.15,0,0,1,3.52-1.37c2.61.05,5,1.7,5.63,3.31.77,2,2,5.92,6,7.59,4.44,1.92,9.83,7.81,10,10.67H244l.33.14c0,.23,0,.43,0,.63a44.71,44.71,0,0,0,1.16,7.7v.16c-.31,3.42-10.34,8.08-14.19,10.13-3.16,1.52-8.73,5.73-12.91,5.77a4.09,4.09,0,0,1-2.69-.88" transform="translate(-44.81 -64.57)"/><path id="path71769" class="cls-50" d="M235.85,270.87c2,1.32.11,2.24-4.34,2.62l-48.91,4.25c-4.45.37-8.4,0-10.41-1.34l-7.58-4.94c-2-1.31-.09-2.24,4.35-2.62l48.9-4.25c4.44-.38,8.41,0,10.41,1.35Z" transform="translate(-44.81 -64.57)"/><path id="path71771" class="cls-51" d="M171.87,276.47l-7.59-5a1.75,1.75,0,0,1-.84-.9c-.19-.95,2-1.62,5.47-1.91l48.91-4.24.83-.07c4.21-.28,8,.18,10,1.46l7.58,4.95-.34.06-.33.08L227.94,266c-1.82-1.18-5.25-1.6-9.24-1.34l-.79,0L169,269c-3.31.31-5,.84-4.81,1.61.06.24.3.51.76.81l7.58,4.94c1.83,1.2,5.25,1.61,9.25,1.35l.78-.05,48.91-4.26c3.33-.29,5-.83,4.8-1.6,0-.24-.28-.52-.74-.81l.33-.08.34-.06c.48.32.75.62.8.9.22.94-2,1.62-5.43,1.91l-48.92,4.24-.81.07h0C177.58,278.2,173.8,277.75,171.87,276.47Z" transform="translate(-44.81 -64.57)"/><path id="path71773" class="cls-52" d="M237.94,297.71l-.31-25.65-1,0c-.26.64-2.12,1.1-5.12,1.37l-48.93,4.21c-4.44.39-8.38.06-10.34-1.09l-7.38-4.34c-.73-.44-1.48-1.14-1.21-1.47l-.73.41s-.09,26.07,1,27.58c.5.67,7.76,4.6,7.76,4.6,1.9.79,5.88.95,10.45.56l50.4-4.29C237.13,299.23,238.36,298.71,237.94,297.71Z" transform="translate(-44.81 -64.57)"/><path id="path71775" class="cls-5" d="M181,303.86c.39,0,.78,0,1.17-.08l50.38-4.29c4.26-.38,5.25-.76,5.14-1.56l-.07-.19.37,0h-.37l-.3-25.52h-.33c-.5.66-2.5,1.12-5.38,1.37l-48.95,4.22-.88.06c-4.17.29-7.9-.1-9.81-1.22l-7.38-4.35a3.52,3.52,0,0,1-1.25-1.1h0c0,.34,0,23.83.38,25.78a4.32,4.32,0,0,0,.64,1.73c.45.61,7.71,4.55,7.71,4.55C173.61,303.94,177,304.13,181,303.86Zm-9.55-.43s-7.23-3.92-7.81-4.64a4.44,4.44,0,0,1-.65-1.76c-.45-2.1-.39-25.84-.39-25.84v0l0,0,.74-.42.64.08V271c.05.33.64.84,1.21,1.17l7.39,4.36c1.77,1,5.11,1.37,9.1,1.11.29,0,.58,0,.86-.06l48.92-4.22c3-.26,4.61-.71,4.82-1.26l0-.11h.33l1.34,0,.32,25.75.06.19c.22.95-1.48,1.53-5.76,1.87L182.2,304l-1.19.08c-4.13.28-7.75.1-9.61-.69" transform="translate(-44.81 -64.57)"/><path id="path71777" class="cls-53" d="M231.51,273.49l-48.91,4.25c-4.45.37-8.4,0-10.41-1.34l-7.58-4.94c-2-1.31-.1-2.24,4.35-2.62l48.9-4.25c4.44-.38,8.41,0,10.41,1.35l7.58,4.93C237.86,272.19,236,273.11,231.51,273.49Zm5.43-2.5-7.87-5.24c-2.09-1.39-6.17-1.84-10.75-1.45l-50.52,4.4c-4.58.4-6.56,1.37-4.46,2.76l7.87,5.23c2.09,1.4,6.18,1.84,10.78,1.44l50.49-4.39c4.59-.39,6.55-1.36,4.46-2.75" transform="translate(-44.81 -64.57)"/><path id="path71779" class="cls-5" d="M217.91,264.71,169,269c-3.33.31-5,.84-4.81,1.61.06.24.3.51.76.81l7.57,4.94c1.84,1.2,5.26,1.61,9.26,1.35l.78-.05,48.91-4.26c3.33-.29,5-.83,4.8-1.6,0-.24-.28-.52-.74-.81L227.94,266c-1.82-1.18-5.25-1.6-9.24-1.34Zm-47,12.06L163,271.52a1.78,1.78,0,0,1-.86-.95c-.23-1,2-1.7,5.6-2l50.52-4.38c.27,0,.53-.05.81-.07,4.37-.29,8.31.2,10.32,1.56l7.87,5.24-.33.07-.33.07-7.87-5.25c-1.92-1.26-5.45-1.7-9.6-1.43H219c4.07-.25,7.72.23,9.62,1.47l7.58,4.95c.48.32.75.62.8.9.22.94-2,1.62-5.43,1.91l-48.93,4.24-.79.07c-4.24.28-8-.18-10-1.46l-7.57-5a1.75,1.75,0,0,1-.84-.9c-.16-.82,1.47-1.44,4.17-1.77-3.27.3-4.89.87-4.73,1.67a1.63,1.63,0,0,0,.79.86l7.87,5.25c1.91,1.26,5.45,1.71,9.61,1.44l.77-.06,50.52-4.38c3.43-.32,5.12-.89,5-1.7,0-.26-.3-.56-.79-.87l.33-.07.33-.07c.51.34.8.66.85,1,.24,1-2,1.7-5.59,2L182,278.25l-.83.07h0c-4.37.29-8.27-.21-10.29-1.55" transform="translate(-44.81 -64.57)"/><path id="path71781" class="cls-54" d="M225.79,360c1.68,1.07.09,1.84-3.58,2.15l-40.46,3.51c-3.67.33-6.94,0-8.61-1.1l-6.26-4.09c-1.68-1.09-.09-1.85,3.59-2.17l40.45-3.5c3.68-.32,6.94,0,8.61,1.11Z" transform="translate(-44.81 -64.57)"/><path id="path71783" class="cls-55" d="M172.88,364.63l-6.27-4.09c-.41-.27-.63-.52-.68-.76-.19-.78,1.63-1.34,4.49-1.57l40.46-3.51.69-.05c3.47-.24,6.61.14,8.24,1.2l6.25,4.09-.27.07-.26.05L219.24,356c-1.51-1-4.33-1.33-7.64-1.11l-.63,0-40.47,3.51c-2.75.25-4.09.7-4,1.33a1.36,1.36,0,0,0,.63.68l6.27,4.08c1.51,1,4.34,1.34,7.65,1.12l.63-.05,40.48-3.51c2.73-.25,4.08-.69,4-1.32,0-.21-.23-.43-.61-.68l.26-.05.27-.07c.41.27.64.52.69.76.17.77-1.65,1.34-4.5,1.56l-40.46,3.52-.67.05h0C177.61,366.06,174.47,365.68,172.88,364.63Z" transform="translate(-44.81 -64.57)"/><path id="path71785" class="cls-56" d="M227.52,382.19,227.26,361l-.81,0c-.23.53-1.76.91-4.26,1.13l-40.46,3.49c-3.67.31-6.92,0-8.54-.92l-6.11-3.59c-.62-.35-1.23-.93-1-1.21l-.6.35s-.07,21.56.86,22.8c.41.56,6.42,3.8,6.42,3.8,1.58.67,4.86.79,8.65.46l41.67-3.53C226.85,383.45,227.87,383,227.52,382.19Z" transform="translate(-44.81 -64.57)"/><path id="path71787" class="cls-5" d="M180.4,387.29l1-.07L223,383.66c3.53-.31,4.35-.62,4.24-1.29l0-.15.29,0-.29,0L227,361.09h-.26c-.41.54-2.08.93-4.47,1.12l-40.47,3.5-.73.06c-3.45.23-6.53-.08-8.11-1l-6.12-3.6a3.07,3.07,0,0,1-1-.91h0c0,.29,0,19.72.31,21.33a4,4,0,0,0,.53,1.43c.37.51,6.38,3.77,6.37,3.76C174.33,387.34,177.08,387.5,180.4,387.29Zm-7.91-.37s-6-3.23-6.45-3.84a3.55,3.55,0,0,1-.55-1.45c-.37-1.73-.32-21.37-.32-21.37v0l.05,0,.6-.36.54.06,0,.16a2.37,2.37,0,0,0,1,1l6.13,3.59c1.43.86,4.23,1.15,7.52.93l.69-.05,40.48-3.5c2.45-.21,3.81-.58,4-1l0-.1h.28l1.09,0,.27,21.3.05.15c.2.79-1.22,1.28-4.76,1.56l-41.69,3.54-1,.07c-3.41.23-6.41.09-7.95-.57" transform="translate(-44.81 -64.57)"/><path id="path71789" class="cls-57" d="M222.21,362.16l-40.46,3.51c-3.67.33-6.94,0-8.61-1.1l-6.26-4.09c-1.68-1.09-.09-1.85,3.59-2.17l40.45-3.5c3.68-.32,6.94,0,8.61,1.11l6.26,4.09C227.47,361.08,225.88,361.85,222.21,362.16Zm4.49-2.07-6.51-4.33c-1.73-1.15-5.11-1.52-8.91-1.2l-41.77,3.64c-3.8.32-5.42,1.13-3.69,2.28l6.52,4.34c1.72,1.15,5.1,1.52,8.89,1.18L223,362.37c3.79-.33,5.42-1.13,3.69-2.28" transform="translate(-44.81 -64.57)"/><path id="path71791" class="cls-5" d="M211,354.9l-40.47,3.51c-2.75.25-4.09.7-4,1.33a1.36,1.36,0,0,0,.63.68l6.27,4.08c1.51,1,4.34,1.34,7.65,1.12l.63-.05,40.48-3.51c2.73-.25,4.08-.69,4-1.32,0-.21-.23-.43-.61-.68L219.24,356c-1.51-1-4.33-1.33-7.64-1.11Zm-38.91,10-6.5-4.34a1.43,1.43,0,0,1-.72-.8c-.19-.81,1.68-1.4,4.63-1.64l41.78-3.63.68-.06c3.62-.24,6.85.17,8.52,1.29L227,360l-.28,0-.28.06-6.51-4.34c-1.58-1-4.51-1.41-7.94-1.18h-.12c3.37-.19,6.38.19,8,1.22l6.25,4.09c.41.27.64.52.69.76.17.77-1.65,1.34-4.5,1.56l-40.46,3.52-.67.05c-3.5.23-6.64-.14-8.24-1.2l-6.28-4.09a1.41,1.41,0,0,1-.67-.76c-.15-.67,1.2-1.18,3.43-1.46-2.71.26-4.05.72-3.92,1.38a1.41,1.41,0,0,0,.65.72l6.51,4.33c1.58,1.05,4.52,1.42,7.93,1.2l.67-.06L223,362.27c2.84-.26,4.23-.72,4.12-1.41-.05-.21-.27-.45-.67-.71l.28-.06.28,0c.41.27.65.53.69.79.19.81-1.68,1.39-4.62,1.65l-41.79,3.63-.68.05h0c-3.6.23-6.82-.18-8.49-1.28" transform="translate(-44.81 -64.57)"/><path id="path71793" class="cls-58" d="M210.57,192.07c.4,10.7-7,19.76-16.56,20.21s-17.63-7.84-18-18.57,7-19.75,16.57-20.19S210.16,181.37,210.57,192.07Z" transform="translate(-44.81 -64.57)"/><path id="path71795" class="cls-59" d="M197.47,177.46l-10.26-7.25,5.72,9.2-4.48,3.66,8.54,2.15s4.19,9.3,4.08,6.72,2.06-7,2.06-7l4.47-3.66-6.3-4,4.33-7.08Z" transform="translate(-44.81 -64.57)"/><path id="path71797" class="cls-5" d="M193.61,179.5l-.34.31-3.71,3,7.92,2.19s1.92,4.22,3.06,6.11a22.27,22.27,0,0,1,2.23-6.58l3.9-3.21-6.1-3.89.27-.43,2.45-4-5.47,4.89-.36-.4-.32.42L189,172.14Zm3.24,6.23-9.58-2.4.83-.65,4.12-3.38-5.49-8.83.8-.68,9.9,7,7.82-7,.82.66-4,6.63,6.48,4.12-.56.46-4.33,3.48s-2.05,4.23-2,6.61a1.19,1.19,0,0,1-.06.25h0v.06c0,.21.09.67-.64.83-1.66-.51-4.07-7-4.06-7.18" transform="translate(-44.81 -64.57)"/><path id="path71799" class="cls-60" d="M199,205.62c.41,10.7-7,19.75-16.57,20.21s-17.62-7.85-18-18.58,7-19.75,16.53-20.19S198.57,194.91,199,205.62Z" transform="translate(-44.81 -64.57)"/><path id="path71801" class="cls-5" d="M181.66,226.35c-9.57,0-17.44-8.41-17.82-19.07,0-.29,0-.57,0-.88,0-10.54,7.43-19.41,17.1-19.88l.78,0c9.56,0,17.38,8.43,17.82,19.09l-.53,0-.54,0c-.43-10.22-7.89-18.09-16.75-18.08a6.27,6.27,0,0,0-.73,0c-9,.39-16.07,8.74-16.07,18.82,0,.24,0,.53.05.83.35,10.2,7.85,18.08,16.73,18.08.23,0,.47,0,.7,0,8.94-.41,16.07-8.73,16.07-18.84v-.82l.54,0,.53,0v.86c0,10.57-7.45,19.41-17.07,19.9h-.77" transform="translate(-44.81 -64.57)"/><path id="path71803" class="cls-61" d="M185.87,191l-10.26-7.27,5.72,9.21-4.47,3.66,8.53,2.15s4.19,9.3,4.1,6.72,2-7,2-7l4.49-3.67-6.3-4,4.34-7.08Z" transform="translate(-44.81 -64.57)"/><path id="path71805" class="cls-5" d="M182,193.06l-.35.28-3.69,3,7.9,2.18s1.94,4.27,3.08,6.15a20.86,20.86,0,0,1,2.23-6.61l3.93-3.22L189,191l.27-.45,2.44-4-5.47,4.86-.35-.37-.34.41-8.09-5.72Zm3.24,6.21-9.56-2.41.82-.66,4.1-3.37L175.13,184l.78-.69,9.9,7,7.88-7,.8.66-4.07,6.62,6.48,4.12-.56.47-4.33,3.5s-2,4.18-2,6.58a1.08,1.08,0,0,1-.06.24H190l0,.12a.81.81,0,0,1-.63.78c-1.67-.49-4.09-7.05-4.08-7.17" transform="translate(-44.81 -64.57)"/><path id="path71807" class="cls-62" d="M231.1,198.67c.41,10.7-7,19.75-16.56,20.2s-17.61-7.83-18-18.57,7-19.75,16.56-20.19S230.69,188,231.1,198.67Z" transform="translate(-44.81 -64.57)"/><path id="path71809" class="cls-5" d="M213.1,180.63c-9,.38-16.09,8.72-16.09,18.81a6.38,6.38,0,0,0,.05.84c.37,10.22,7.85,18.08,16.76,18.08.22,0,.45,0,.68,0,8.91-.43,16.06-8.75,16.06-18.83,0-.28,0-.54,0-.82-.43-10.22-7.85-18.1-16.71-18.08C213.6,180.61,213.35,180.61,213.1,180.63ZM196,200.34c0-.28-.05-.6-.05-.9,0-10.55,7.44-19.42,17.11-19.87h.8c9.54,0,17.36,8.43,17.79,19.09l-.53,0,.53,0c0,.28,0,.57,0,.86,0,10.55-7.48,19.41-17.09,19.88a6.27,6.27,0,0,1-.73,0c-9.58,0-17.45-8.42-17.85-19.08" transform="translate(-44.81 -64.57)"/><path id="path71811" class="cls-63" d="M218,184.06l-10.27-7.26,5.73,9.19L209,189.66l8.53,2.16s4.21,9.29,4.09,6.71,2-7,2-7l4.48-3.64-6.3-4,4.34-7.07Z" transform="translate(-44.81 -64.57)"/><path id="path71813" class="cls-64" d="M258.23,280.72c2,1.32.1,2.25-4.34,2.62L205,287.6c-4.43.37-8.39,0-10.41-1.35L187,281.3c-2-1.3-.09-2.22,4.35-2.61l48.91-4.25c4.44-.38,8.4,0,10.4,1.34Z" transform="translate(-44.81 -64.57)"/><path id="path71815" class="cls-65" d="M194.24,286.32l-7.58-4.94a1.73,1.73,0,0,1-.83-.91c-.21-.94,2-1.62,5.45-1.91l48.91-4.24c.27,0,.56,0,.82-.06,4.22-.29,8,.17,10,1.45l7.59,4.94-.33.07-.33.08-7.59-4.95c-1.83-1.19-5.25-1.6-9.25-1.34-.26,0-.5,0-.76.06l-48.93,4.24c-3.31.3-5,.84-4.82,1.6a1.65,1.65,0,0,0,.76.83l7.59,4.94c1.82,1.18,5.25,1.6,9.24,1.34a6.83,6.83,0,0,0,.78-.06l48.92-4.24c3.32-.29,5-.84,4.81-1.61,0-.24-.29-.51-.75-.81l.33-.08.33-.07c.48.33.77.63.81.92.21.94-2,1.61-5.43,1.9L205,287.71l-.83.07h0C200,288.05,196.18,287.59,194.24,286.32Z" transform="translate(-44.81 -64.57)"/><path id="path71817" class="cls-66" d="M260.31,307.56l-.3-25.64h-1c-.27.64-2.12,1.1-5.14,1.37L205,287.52c-4.45.39-8.37.05-10.33-1.09l-7.39-4.36c-.73-.43-1.49-1.13-1.21-1.46l-.73.41s-.09,26.07,1,27.58c.5.67,7.77,4.59,7.77,4.59,1.89.81,5.86,1,10.43.57l50.4-4.29C259.5,309.08,260.75,308.56,260.31,307.56Z" transform="translate(-44.81 -64.57)"/><path id="path71819" class="cls-5" d="M203.32,313.72l1.17-.08,50.39-4.29c4.25-.39,5.24-.77,5.13-1.57l-.07-.19.37,0-.37,0-.3-25.53h-.32c-.5.66-2.51,1.12-5.4,1.36L205,287.64c-.29,0-.59.05-.89.07-4.18.28-7.89-.09-9.81-1.22l-7.38-4.34a3.49,3.49,0,0,1-1.24-1.1h0c0,.34,0,23.82.39,25.78a4.49,4.49,0,0,0,.62,1.73c.46.6,7.72,4.56,7.72,4.56h0C196,313.8,199.33,314,203.32,313.72Zm-9.55-.45s-7.23-3.9-7.8-4.63a4.44,4.44,0,0,1-.66-1.76c-.44-2.11-.38-25.84-.38-25.84v0l.06,0,.72-.41.66.07,0,.19c.06.32.65.85,1.22,1.18l7.39,4.35c1.77,1,5.13,1.37,9.1,1.11l.86-.06,48.93-4.23c3-.24,4.6-.7,4.83-1.24l0-.11.33,0,1.32,0,.33,25.75.07.2c.22.94-1.49,1.53-5.78,1.86l-50.39,4.3-1.19.08c-4.15.28-7.75.1-9.62-.7" transform="translate(-44.81 -64.57)"/><path id="path71821" class="cls-67" d="M253.89,283.34,205,287.6c-4.43.37-8.39,0-10.41-1.35L187,281.3c-2-1.3-.09-2.22,4.35-2.61l48.91-4.25c4.44-.38,8.4,0,10.4,1.34l7.59,4.94C260.24,282,258.33,283,253.89,283.34Zm5.44-2.5-7.89-5.24c-2.09-1.39-6.16-1.84-10.76-1.44l-50.51,4.38c-4.57.41-6.56,1.37-4.46,2.77l7.88,5.23c2.08,1.39,6.17,1.84,10.76,1.45l50.5-4.39c4.6-.41,6.55-1.37,4.48-2.76" transform="translate(-44.81 -64.57)"/><path id="path71823" class="cls-5" d="M240.3,274.57l-48.93,4.24c-3.32.3-5,.84-4.82,1.6a1.65,1.65,0,0,0,.76.83l7.59,4.94c1.82,1.18,5.24,1.6,9.25,1.34l.77-.06,48.92-4.24c3.32-.29,5-.84,4.81-1.61,0-.24-.29-.51-.75-.81l-7.59-4.95c-1.83-1.19-5.25-1.6-9.25-1.34C240.8,274.52,240.56,274.55,240.3,274.57Zm-47,12.05-7.88-5.24c-.51-.35-.8-.66-.86-1-.21-1,2-1.69,5.6-2l50.52-4.38c.27,0,.54-.06.83-.08,4.35-.29,8.28.21,10.3,1.56l7.87,5.24-.31.07-.35.07-7.87-5.25c-1.9-1.26-5.46-1.71-9.6-1.43h-.15c4.07-.23,7.71.24,9.61,1.48l7.59,4.94c.48.33.77.63.81.92.21.94-2,1.61-5.43,1.9L205,287.71l-.82.07c-4.23.27-8-.18-10-1.46l-7.57-4.94c-.49-.32-.77-.62-.83-.91-.17-.82,1.46-1.43,4.16-1.77-3.28.3-4.88.87-4.74,1.67a1.67,1.67,0,0,0,.8.87l7.87,5.24c1.9,1.26,5.44,1.7,9.59,1.44l.78-.06,50.52-4.38c3.43-.32,5.11-.88,4.95-1.7,0-.26-.29-.56-.78-.87l.35-.07.31-.07c.5.34.8.66.86,1,.22,1-2,1.69-5.6,2l-50.52,4.39-.82.06h0c-4.36.28-8.26-.21-10.27-1.56" transform="translate(-44.81 -64.57)"/><path id="path71825" class="cls-68" d="M330.65,293.44c.47,12.66-8.31,23.37-19.6,23.9s-20.85-9.27-21.32-22S298,272,309.32,271.49,330.16,280.77,330.65,293.44Z" transform="translate(-44.81 -64.57)"/><path id="path71827" class="cls-5" d="M310.19,317.88c-11.28,0-20.55-9.89-21-22.48,0-.33,0-.68,0-1,0-12.44,8.78-22.88,20.14-23.42.31,0,.59,0,.91,0,11.25,0,20.47,9.94,21,22.49l-.54,0h-.54c-.49-12.1-9.34-21.47-19.9-21.47-.27,0-.57,0-.85,0-10.67.46-19.11,10.37-19.11,22.36,0,.3,0,.64,0,1,.43,12.1,9.32,21.48,19.92,21.48l.8,0c10.66-.51,19.12-10.41,19.12-22.42,0-.34,0-.64,0-1h.54l.54,0c0,.33,0,.68,0,1,0,12.47-8.81,22.9-20.15,23.48h-.86" transform="translate(-44.81 -64.57)"/><path id="path71829" class="cls-69" d="M315.13,276.15,303,267.56l6.8,10.88-5.31,4.35,10.11,2.54s5,11,4.84,7.95,2.42-8.29,2.42-8.29l5.3-4.32-7.46-4.74,5.14-8.38Z" transform="translate(-44.81 -64.57)"/><path id="path71831" class="cls-5" d="M310.48,278.53l-.37.32-4.53,3.68,9.47,2.58s2.46,5.4,3.81,7.49c.23-3.29,2.49-7.81,2.61-8l4.74-3.88-7.28-4.63.27-.42,3.27-5.33-7,6.22-.36-.4-.31.42-10-7Zm4,7.31L303.31,283l.82-.63,4.93-4.06-6.56-10.5.8-.68,11.78,8.33,9.36-8.31.83.65-4.87,7.95,7.64,4.85-.58.46-5.15,4.15s-2.41,5-2.39,7.85a.69.69,0,0,1-.05.31h.05c-.05.26.1.79-.67.95-1.82-.53-4.82-8.39-4.81-8.49" transform="translate(-44.81 -64.57)"/><path id="path71833" class="cls-70" d="M301,299.12c.47,12.67-8.31,23.38-19.6,23.91s-20.84-9.27-21.32-22,8.3-23.37,19.59-23.89S300.56,286.46,301,299.12Z" transform="translate(-44.81 -64.57)"/><path id="path71835" class="cls-5" d="M279.72,277.7c-10.68.45-19.12,10.4-19.12,22.38,0,.29,0,.63,0,1,.43,12.11,9.33,21.48,19.92,21.48h.83c10.65-.51,19.11-10.43,19.12-22.42a7.87,7.87,0,0,0,0-1c-.47-12.08-9.33-21.47-19.88-21.47A8.14,8.14,0,0,0,279.72,277.7Zm.84,45.86c-11.26,0-20.55-9.9-21-22.48,0-.32,0-.66,0-1,0-12.45,8.78-22.91,20.15-23.45h.93c11.23,0,20.47,9.91,21,22.48l-.53,0,.53,0v1c0,12.47-8.77,22.89-20.11,23.47h-.88" transform="translate(-44.81 -64.57)"/><path id="path71837" class="cls-71" d="M285.52,281.84l-12.14-8.59,6.79,10.88-5.29,4.34L285,291s5,11,4.84,8,2.44-8.3,2.44-8.3l5.27-4.32-7.44-4.74,5.13-8.37Z" transform="translate(-44.81 -64.57)"/><path id="path71839" class="cls-5" d="M280.85,284.23l-.37.31-4.5,3.68,9.46,2.58s2.46,5.39,3.8,7.49c.23-3.31,2.51-7.81,2.63-8l4.72-3.87-7.26-4.6.27-.45,3.28-5.33-7,6.21-.36-.37-.35.42-10-7.06Zm4,7.3-11.11-2.81.83-.66,4.91-4.05-6.53-10.49.79-.69,11.79,8.33,9.34-8.3.82.66-4.88,7.93,7.62,4.83-.56.47-5.12,4.16s-2.43,5-2.41,7.87a.79.79,0,0,1-.07.29h.07c-.05.24.12.77-.69.94-1.78-.5-4.79-8.36-4.8-8.48" transform="translate(-44.81 -64.57)"/></g></svg>